<svg xmlns="http://www.w3.org/2000/svg" width="91.638" height="93.972" viewBox="0 0 91.638 93.972"><path d="M45.819 2.334c-25.305 0-45.819 20.514-45.819 45.819 0 25.305 20.514 45.818 45.819 45.818 25.305 0 45.818-20.514 45.818-45.818.001-25.305-20.513-45.819-45.818-45.819zm0 77.638c-17.573 0-31.819-14.246-31.819-31.819s14.246-31.819 31.819-31.819c17.572 0 31.818 14.246 31.818 31.819.001 17.573-14.245 31.819-31.818 31.819z" stroke="#fff" stroke-width=".25" stroke-miterlimit="10" fill="none"/><path d="M45.819 2.334l-.001 14h.001c17.572 0 31.818 14.246 31.818 31.819h14c.001-25.305-20.513-45.819-45.818-45.819z" opacity=".4" fill="#fff"/><path d="M77.638 48.153c0 17.572-14.246 31.818-31.818 31.818-8.504 0-16.223-3.343-21.932-8.778l-9.649 10.139c8.22 7.826 19.335 12.64 31.581 12.64 25.305 0 45.818-20.514 45.818-45.818h-14z" opacity=".4" fill="#3769A4"/><path stroke="#fff" stroke-width=".25" stroke-miterlimit="10" fill="none" d="M45.818 48.153v-48.153"/></svg>