<?xml version="1.0" encoding="iso-8859-1"?>
<!-- Generator: Adobe Illustrator 16.0.0, SVG Export Plug-In . SVG Version: 6.00 Build 0)  -->
<!DOCTYPE svg PUBLIC "-//W3C//DTD SVG 1.1//EN" "http://www.w3.org/Graphics/SVG/1.1/DTD/svg11.dtd">
<svg version="1.1" id="&#x56FE;&#x5C42;_1" xmlns="http://www.w3.org/2000/svg" xmlns:xlink="http://www.w3.org/1999/xlink" x="0px"
	 y="0px" width="91.638px" height="93.972px" viewBox="0 0 91.638 93.972" style="enable-background:new 0 0 91.638 93.972;"
	 xml:space="preserve">
<path style="fill:none;stroke:#FFFFFF;stroke-width:0.25;stroke-miterlimit:10;" d="M45.819,2.334C20.514,2.334,0,22.848,0,48.153
	c0,25.305,20.514,45.818,45.819,45.818c25.305,0,45.818-20.514,45.818-45.818C91.638,22.848,71.124,2.334,45.819,2.334z
	 M45.819,79.972C28.246,79.972,14,65.726,14,48.153c0-17.573,14.246-31.819,31.819-31.819c17.572,0,31.818,14.246,31.818,31.819
	C77.638,65.726,63.392,79.972,45.819,79.972z"/>
<path style="opacity:0.4;fill:#FFFFFF;" d="M45.819,2.334L45.819,2.334l-0.001,14h0.001c17.572,0,31.818,14.246,31.818,31.819h14
	C91.638,22.848,71.124,2.334,45.819,2.334z"/>
<path style="opacity:0.4;fill:#3769A4;" d="M77.638,48.153c0,17.572-14.246,31.818-31.818,31.818
	c-8.504,0-16.223-3.343-21.932-8.778l-9.649,10.139c8.22,7.826,19.335,12.64,31.581,12.64c25.305,0,45.818-20.514,45.818-45.818
	H77.638z"/>
<line style="fill:none;stroke:#FFFFFF;stroke-width:0.25;stroke-miterlimit:10;" x1="45.818" y1="48.153" x2="45.818" y2="0"/>
</svg>
