<svg xmlns="http://www.w3.org/2000/svg" width="59.351" height="20.734" viewBox="0 0 59.351 20.734"><g fill="#fff"><path d="M51.483 11.749h-5.558v.916h5.558c.254 0 .459-.205.459-.458s-.205-.458-.459-.458zM43.469 8.136h.426v12.599h-.426zM51.854 15.867h-1.063l.265 1.092c0 .054-.039.08-.117.08h-3.979l1.137-2.117h3.66c.26 0 .473-.211.473-.473 0-.261-.213-.473-.473-.473h-6.115v.945h1.326l-1.15 2.206v.857h5.723c.381 0 .572-.154.572-.462v-.484l-.037-.204-.222-.967zM54.887 12.006v-.403h-.827v.403h-1.063v5.335c0 .214.175.388.389.388.215 0 .388-.174.388-.388v-4.536h.286v5.356h.827v-5.356h.287v4.037c0 .098-.047.146-.139.146h.021v.77h.147c.499 0 .747-.249.747-.747v-5.005h-1.063zM58.354 12.203v-.601h-1.187v.601h-.931v5.841h2.374c.493 0 .74-.21.74-.631v-5.21h-.996zm0 4.785c0 .132-.078.198-.233.198h-.917v-1.635h1.15v1.437zm0-2.293h-1.15v-1.634h1.15v1.634zM1.327 11.869l1.313 5.047h.335l1.315-5.047h1.338l-2.354 8.865h-1.327l.743-2.666h-1.065l-1.625-6.199h1.327zM9.112 18.068v-6.199h1.339v.385s.905-.521 1.712-.521c1.723 0 2.145.979 2.145 3.013v3.323h-1.339v-3.285c0-1.24-.161-1.848-1.104-1.848-.718 0-1.4.322-1.4.322v4.811h-1.353zM19.91 13.146s-1.463-.198-2.207-.198c-.743 0-1.078.173-1.078.682 0 .409.26.521 1.476.731 1.487.261 2.021.632 2.021 1.872 0 1.451-.917 1.972-2.455 1.972-.854 0-2.293-.272-2.293-.272l.049-1.129s1.488.198 2.121.198c.892 0 1.239-.186 1.239-.731 0-.434-.211-.57-1.438-.769-1.363-.223-2.058-.521-2.058-1.835 0-1.401 1.091-1.922 2.318-1.922.905 0 2.331.272 2.331.272l-.026 1.129zM21.15 11.869h1.338v.385s.856-.521 1.601-.521c1.611 0 2.367.918 2.367 3.175 0 2.554-.867 3.298-2.776 3.298-.509 0-1.104-.099-1.179-.111v2.641h-1.351v-8.867zm1.351 1.413v3.658c.063.013.657.099 1.092.099 1.152 0 1.487-.606 1.487-2.132 0-1.451-.458-1.972-1.228-1.972-.657.001-1.351.347-1.351.347zM32.296 16.916l.024 1.004s-1.413.285-2.504.285c-1.86 0-2.58-.992-2.58-3.174 0-2.27.979-3.299 2.691-3.299 1.735 0 2.604.905 2.604 2.84l-.087.967h-3.844c.012.992.385 1.488 1.414 1.488.98 0 2.282-.111 2.282-.111zm-1.091-2.419c0-1.239-.373-1.648-1.277-1.648-.918 0-1.327.459-1.34 1.648h2.617zM37.738 11.969l-.05 1.066s-.979-.1-1.451-.1c-1.289 0-1.587.521-1.587 1.946 0 1.587.261 2.12 1.6 2.12.472 0 1.45-.099 1.45-.099l.038 1.079s-1.253.223-1.885.223c-1.91 0-2.567-.942-2.567-3.323 0-2.219.744-3.149 2.593-3.149.656 0 1.859.237 1.859.237zM40.391 13.022v2.728c0 .93.037 1.252.682 1.252.348 0 1.017-.037 1.017-.037l.063 1.079s-.831.161-1.265.161c-1.401 0-1.836-.521-1.836-2.306v-2.877h-.794v-1.153h.794v-1.798h1.34v1.798h1.711v1.153h-1.712zM9.08 3.241l-.901 3.373-.439-.83-.885 1.673-.451-.446-.358.354-.979-2.606-1.335 3.556h6.704zM5.084 8.315h1.318l-.356-.95zM4.406 6.52l.674 1.795h-1.348zM6.412 8.315h1.322l-.869-.858zM9.756 5.771l.679 2.544h-1.358zM7.724 8.315h1.353l-.898-1.701zM7.073 0c-3.199 0-5.792 2.594-5.792 5.792 0 3.199 2.593 5.792 5.792 5.792s5.791-2.593 5.791-5.792c0-3.198-2.592-5.792-5.791-5.792zm0 10.37c-2.529 0-4.578-2.05-4.578-4.578s2.049-4.578 4.578-4.578c2.528 0 4.577 2.05 4.577 4.578s-2.048 4.578-4.577 4.578zM7.742 13.873c0-.224-.184-.406-.407-.406h-.523c-.225 0-.407.183-.407.406v3.791c0 .225.183.406.407.406h.523c.224 0 .407-.182.407-.406v-3.791zM7.742 12.275c0-.224-.184-.406-.407-.406h-.523c-.225 0-.407.183-.407.406v.525c0 .224.183.406.407.406h.523c.224 0 .407-.183.407-.406v-.525z"/></g></svg>