<svg xmlns="http://www.w3.org/2000/svg" width="101.006" height="26.767" viewBox="0 0 101.006 26.767"><g fill="#fff"><path d="M7 7.958l6.383-.81 6.383.81v6.503c0 5.154-6.383 6.781-6.383 6.781s-6.383-1.627-6.383-6.642v-6.642zM13.383 7.147v14.095s-6.383-1.627-6.383-6.781v-6.503l6.383-.811z" opacity=".4"/><g opacity=".5"><path d="M7.204 16.08c.31 1.105.948 2.002 1.703 2.719l10.843-10.844-3.923-.498-8.623 8.623zM19.779 10.739v-1.357l-.014.013v1.357l.014-.013zM10.516 20.002l9.25-9.25v-1.357l-10.065 10.066c.269.198.543.379.815.541z"/></g><path d="M3.92 3.919c-5.228 5.228-5.227 13.7 0 18.927 5.226 5.226 13.699 5.228 18.926-.001 5.227-5.227 5.226-13.699 0-18.925-5.227-5.227-13.699-5.227-18.926-.001zm16.943 16.944c-4.132 4.132-10.829 4.131-14.959 0-4.133-4.133-4.133-10.828-.001-14.96 4.132-4.131 10.828-4.131 14.96 0 4.131 4.132 4.132 10.828 0 14.96zM48.045 6.193h-14.241v2.348h14.241c.647 0 1.173-.525 1.173-1.173.001-.649-.525-1.175-1.173-1.175zM48.992 16.745h-2.721l.676 2.798c0 .139-.101.205-.301.205h-10.194l2.911-5.425h9.378c.668 0 1.21-.542 1.21-1.212 0-.667-.542-1.21-1.21-1.21h-15.668v2.422h3.398l-2.947 5.651v2.195h14.662c.978 0 1.465-.395 1.465-1.182v-1.24c-.039-.301-.07-.476-.093-.525l-.566-2.477zM56.765 6.851v-1.033h-2.12v1.033h-2.723v13.667c0 .55.445.995.994.995.551 0 .996-.445.996-.995v-11.621h.732v13.724h2.12v-13.724h.733v10.344c0 .251-.121.376-.357.376h.057v1.972h.375c1.277 0 1.916-.639 1.916-1.916v-12.822h-2.723zM65.645 7.357v-1.539h-3.041v1.539h-2.385v14.963h6.085c1.261 0 1.894-.537 1.894-1.614v-13.349h-2.553zm0 12.26c0 .338-.199.508-.6.508h-2.348v-4.188h2.947v3.68zm0-5.876h-2.947v-4.186h2.947v4.186zM72.586 6.008h1.364v1.673h2.737v1.218h-2.737v2.931h3.386v1.256h-7.125v-1.256h2.375v-5.822zM85.045 6.023v6.145c0 .313-.1.573-.301.779-.158.18-.391.27-.693.27h-.795v-.856h-.293l-.223-.748-.271.748h-.747l.016.062h-1.025l-.293-.94-.316.94h-.725v.648h-1.188v-7.048h6.854zm-3.259 1.434h.723l.324 1.064.379-1.064h.655v-.293h-4.487v.231h.785l.294.94.315-.94h1.025l-.013.062zm-2.407 4.079l.555-1.627-.555-1.751v3.378zm2.22.423l.679-1.889-.648-2.15-.679 1.989.648 2.05zm2.268-3.469l-.571 1.581.555 1.819.017-.215v-3.185zM86.92 5.977h1.473l-.703 1.673-.053.116h.855l-.718 1.719v3.616h-1.324v-2.93h-.479v-1.18h.371c.148 0 .256-.095.322-.285l.193-.509h-.824v-1.18h.338c.123 0 .211-.083.264-.247l.285-.793zm6.145 1.789v1.11h-.51v3.169c0 .735-.451 1.103-1.356 1.103h-1.804v-1.149h1.479c.186 0 .278-.074.278-.223v-2.901h-2.591v-1.11h4.504zm-.094-1.736v1.072h-4.256v-1.072h4.256zM94.067 7.789h2.514v-1.797h1.287v1.796h2.977v4.164c0 .75-.43 1.125-1.287 1.125h-1.682v-1.256h1.195c.221 0 .332-.095.332-.285v-2.491h-1.535v.385h.787l.092.64c.036.211.123.316.263.316h.224v1.102h-.804c-.364 0-.594-.21-.686-.632l-.07-.377-1.642 2.414c-.108.148-.257.223-.446.223h-1.443v-1.141h.825c.072-.01.149-.057.231-.139l1.281-2.09c.051-.087.084-.182.1-.285v-.416h-2.514v-1.256zm.416-1.581h1.18l.123.27c.026.057.072.085.139.085h.363v.957h-.972c-.159 0-.296-.108-.409-.324l-.424-.988zM73.697 15.338v.918h-.64l.046.123c.041.119.12.178.239.178h.107v.401h.277v-.485c.14 0 .232-.088.277-.264l.24-.731c.025-.093.082-.14.169-.14h2.829v.918h-.594l.055.123c.051.119.146.178.285.178h.131v.771h-.778c-.22 0-.408-.126-.562-.378l-.348-.694h-.116c-.072 0-.131.057-.176.17l-.316.655c-.072.165-.197.265-.379.301l.016.093h2.854v1.287h-.34v.972c0 .441-.375.663-1.125.663h-4.087v.199h5.366v1.111c0 .482-.375.725-1.125.725h-5.49v-3.67h-.309v-1.287h2.907l-.022-.146h-.371c-.2 0-.369-.126-.51-.378l-.322-.694h-.023c-.077 0-.139.057-.185.17l-.333.633c-.092.205-.285.308-.577.308h-.556v-.925c.148 0 .252-.086.309-.256l.254-.708c.025-.093.09-.14.193-.14h2.73zm-2.237 3.277h4.596v-.293h-4.596v.293zm2.977.74h-2.676v.301h3.662c.196 0 .294-.057.294-.17v-.131h-1.28zm-1.388 2.267h2.529c.195 0 .291-.062.291-.185v-.063h-4.108v.247h1.288zM80.575 15.393v1.072h-.594v1.804h.531v1.103h-.531v1.857h.531v1.118h-2.344v-1.118h.594v-1.857h-.594v-1.103h.594v-1.804h-.594v-1.072h2.407zm4.57-.024v2.529h-.014v.971c0 .463-.258.694-.771.694h-.802v.378h1.519v1.033h-1.519v.385h1.643v1.033h-4.534v-1.033h1.742v-.385h-1.588v-1.033h1.588v-.378h-1.572v-1.665h-.023v-2.529h4.331zm-3.223 1.619h.486v-.625h-.486v.625zm.487 1.58v-.616h-.478v.616h.478zm1.149-2.205v.625h.478v-.625h-.478zm.246 2.205c.149 0 .224-.066.224-.199v-.417h-.47v.616h.246zM87.167 20.404h1.364l-.517 1.495c-.133.35-.463.524-.986.524h-1.025v-1.11h.539c.104 0 .19-.052.263-.153l.362-.756zm4.51-5.066h1.333c-.041.457-.167.782-.377.973-.195.169-.476.254-.842.254h-2.721l-.979.686h1.512l.84-.471h1.997l-3.917 2.213h2.821c.176 0 .264-.074.264-.223v-.301h1.402v.764c0 .627-.354.94-1.063.94h-1.72v1.758c0 .401-.265.601-.794.601h-1.188v-1.01h.457c.133 0 .199-.063.199-.192v-1.156h-2.736v-.972l1.688-.957h-1.496v-.825c0-.051.047-.102.139-.154l1.02-.701h-1.357v-1.025h5.096c.199-.001.339-.067.422-.202zm-1.165 5.074h1.365l.354.794c.047.093.117.138.209.138h.656v1.111h-1.196c-.411 0-.683-.164-.817-.494l-.571-1.549zM100.991 15.67v1.071h-1.951l-.578 1.303h1.134c.18 0 .271-.14.271-.423v-.309h1.141v.717c0 .298-.07.523-.209.679-.119.175-.297.28-.539.315v2.244c0 .139.08.208.238.208h.494v1.033h-1.203c-.473 0-.709-.206-.709-.616v-2.854h-1.912v-.91c0-.133.031-.254.092-.362l.502-1.025h-.655l-1.666 2.521h1.057v1.11h-2.567v-.925c0-.108.044-.214.131-.316l.632-.901h-.909v-.833c0-.071.029-.146.084-.216l1.131-1.835h1.364l-1.218 1.889h.247l.479-.686h1.109v-.879h1.428l-.147-.416h1.325l.141.416h1.263zm-5.391 5.097h1.304l-.739 1.172c-.154.257-.422.386-.803.386h-1.558v-1.08h1.057c.165 0 .282-.038.355-.115l.384-.363zm3.193-1.419l-.262 2.467c-.053.458-.217.687-.494.687h-1.18v-1.079h.447c.078 0 .126-.098.146-.293l.161-1.781h1.182zM40.446 24.313"/></g></svg>