<?xml version="1.0" encoding="iso-8859-1"?>
<!-- Generator: Adobe Illustrator 16.0.0, SVG Export Plug-In . SVG Version: 6.00 Build 0)  -->
<!DOCTYPE svg PUBLIC "-//W3C//DTD SVG 1.1//EN" "http://www.w3.org/Graphics/SVG/1.1/DTD/svg11.dtd">
<svg version="1.1" id="&#x56FE;&#x5C42;_1" xmlns="http://www.w3.org/2000/svg" xmlns:xlink="http://www.w3.org/1999/xlink" x="0px"
	 y="0px" width="59.351px" height="20.734px" viewBox="0 0 59.351 20.734" style="enable-background:new 0 0 59.351 20.734;"
	 xml:space="preserve">
<g>
	<g>
		<path style="fill:#FFFFFF;" d="M51.483,11.749h-5.558v0.916h5.558c0.254,0,0.459-0.205,0.459-0.458S51.737,11.749,51.483,11.749z"
			/>
		<rect x="43.469" y="8.136" style="fill:#FFFFFF;" width="0.426" height="12.599"/>
		<path style="fill:#FFFFFF;" d="M51.854,15.867h-1.063l0.265,1.092c0,0.054-0.039,0.08-0.117,0.08h-3.979l1.137-2.117h3.66
			c0.26,0,0.473-0.211,0.473-0.473c0-0.261-0.213-0.473-0.473-0.473h-6.115v0.945h1.326l-1.15,2.206v0.857h5.723
			c0.381,0,0.572-0.154,0.572-0.462v-0.484c-0.016-0.117-0.028-0.185-0.037-0.204L51.854,15.867z"/>
		<path style="fill:#FFFFFF;" d="M54.887,12.006v-0.403H54.06v0.403h-1.063v5.335c0,0.214,0.175,0.388,0.389,0.388
			c0.215,0,0.388-0.174,0.388-0.388v-4.536h0.286v5.356h0.827v-5.356h0.287v4.037c0,0.098-0.047,0.146-0.139,0.146h0.021v0.77h0.147
			c0.499,0,0.747-0.249,0.747-0.747v-5.005H54.887z"/>
		<path style="fill:#FFFFFF;" d="M58.354,12.203v-0.601h-1.187v0.601h-0.931v5.841h2.374c0.493,0,0.74-0.21,0.74-0.631v-5.21H58.354
			z M58.354,16.988c0,0.132-0.078,0.198-0.233,0.198h-0.917v-1.635h1.15V16.988z M58.354,14.695h-1.15v-1.634h1.15V14.695z"/>
		<path style="fill:#FFFFFF;" d="M1.327,11.869l1.313,5.047h0.335l1.315-5.047h1.338l-2.354,8.865H1.947l0.743-2.666H1.625L0,11.869
			H1.327z"/>
		<path style="fill:#FFFFFF;" d="M9.112,18.068v-6.199h1.339v0.385c0,0,0.905-0.521,1.712-0.521c1.723,0,2.145,0.979,2.145,3.013
			v3.323h-1.339v-3.285c0-1.24-0.161-1.848-1.104-1.848c-0.718,0-1.4,0.322-1.4,0.322v4.811H9.112z"/>
		<path style="fill:#FFFFFF;" d="M19.91,13.146c0,0-1.463-0.198-2.207-0.198c-0.743,0-1.078,0.173-1.078,0.682
			c0,0.409,0.26,0.521,1.476,0.731c1.487,0.261,2.021,0.632,2.021,1.872c0,1.451-0.917,1.972-2.455,1.972
			c-0.854,0-2.293-0.272-2.293-0.272l0.049-1.129c0,0,1.488,0.198,2.121,0.198c0.892,0,1.239-0.186,1.239-0.731
			c0-0.434-0.211-0.57-1.438-0.769c-1.363-0.223-2.058-0.521-2.058-1.835c0-1.401,1.091-1.922,2.318-1.922
			c0.905,0,2.331,0.272,2.331,0.272L19.91,13.146z"/>
		<path style="fill:#FFFFFF;" d="M21.15,11.869h1.338v0.385c0,0,0.856-0.521,1.601-0.521c1.611,0,2.367,0.918,2.367,3.175
			c0,2.554-0.867,3.298-2.776,3.298c-0.509,0-1.104-0.099-1.179-0.111v2.641H21.15V11.869z M22.501,13.282v3.658
			c0.063,0.013,0.657,0.099,1.092,0.099c1.152,0,1.487-0.606,1.487-2.132c0-1.451-0.458-1.972-1.228-1.972
			C23.195,12.936,22.501,13.282,22.501,13.282z"/>
		<path style="fill:#FFFFFF;" d="M32.296,16.916l0.024,1.004c0,0-1.413,0.285-2.504,0.285c-1.86,0-2.58-0.992-2.58-3.174
			c0-2.27,0.979-3.299,2.691-3.299c1.735,0,2.604,0.905,2.604,2.84l-0.087,0.967h-3.844c0.012,0.992,0.385,1.488,1.414,1.488
			C30.994,17.027,32.296,16.916,32.296,16.916z M31.205,14.497c0-1.239-0.373-1.648-1.277-1.648c-0.918,0-1.327,0.459-1.34,1.648
			H31.205z"/>
		<path style="fill:#FFFFFF;" d="M37.738,11.969l-0.05,1.066c0,0-0.979-0.1-1.451-0.1c-1.289,0-1.587,0.521-1.587,1.946
			c0,1.587,0.261,2.12,1.6,2.12c0.472,0,1.45-0.099,1.45-0.099l0.038,1.079c0,0-1.253,0.223-1.885,0.223
			c-1.91,0-2.567-0.942-2.567-3.323c0-2.219,0.744-3.149,2.593-3.149C36.535,11.732,37.738,11.969,37.738,11.969z"/>
		<path style="fill:#FFFFFF;" d="M40.391,13.022v2.728c0,0.93,0.037,1.252,0.682,1.252c0.348,0,1.017-0.037,1.017-0.037l0.063,1.079
			c0,0-0.831,0.161-1.265,0.161c-1.401,0-1.836-0.521-1.836-2.306v-2.877h-0.794v-1.153h0.794v-1.798h1.34v1.798h1.711v1.153H40.391
			z"/>
	</g>
	<polygon style="fill:#FFFFFF;" points="9.08,3.241 8.179,6.614 7.74,5.784 6.855,7.457 6.404,7.011 6.046,7.365 5.067,4.759 
		3.732,8.315 5.084,8.315 6.402,8.315 6.402,8.315 7.724,8.315 7.725,8.315 9.077,8.315 10.436,8.315 	"/>
	<g>
		<polygon style="fill:#FFFFFF;" points="5.084,8.315 6.402,8.315 6.046,7.365 		"/>
		<polygon style="fill:#FFFFFF;" points="4.406,6.52 5.08,8.315 3.732,8.315 		"/>
		<polygon style="fill:#FFFFFF;" points="6.412,8.315 7.734,8.315 6.865,7.457 		"/>
		<polygon style="fill:#FFFFFF;" points="9.756,5.771 10.435,8.315 9.077,8.315 		"/>
		<polygon style="fill:#FFFFFF;" points="7.724,8.315 9.077,8.315 8.179,6.614 		"/>
	</g>
	<path style="fill:#FFFFFF;" d="M7.073,0C3.874,0,1.281,2.594,1.281,5.792c0,3.199,2.593,5.792,5.792,5.792s5.791-2.593,5.791-5.792
		C12.864,2.594,10.272,0,7.073,0z M7.073,10.37c-2.529,0-4.578-2.05-4.578-4.578s2.049-4.578,4.578-4.578
		c2.528,0,4.577,2.05,4.577,4.578S9.602,10.37,7.073,10.37z"/>
	<path style="fill:#FFFFFF;" d="M7.742,13.873c0-0.224-0.184-0.406-0.407-0.406H6.812c-0.225,0-0.407,0.183-0.407,0.406v3.791
		c0,0.225,0.183,0.406,0.407,0.406h0.523c0.224,0,0.407-0.182,0.407-0.406V13.873z"/>
	<path style="fill:#FFFFFF;" d="M7.742,12.275c0-0.224-0.184-0.406-0.407-0.406H6.812c-0.225,0-0.407,0.183-0.407,0.406V12.8
		c0,0.224,0.183,0.406,0.407,0.406h0.523c0.224,0,0.407-0.183,0.407-0.406V12.275z"/>
</g>
</svg>
