<?xml version="1.0" encoding="iso-8859-1"?>
<!-- Generator: Adobe Illustrator 16.0.0, SVG Export Plug-In . SVG Version: 6.00 Build 0)  -->
<!DOCTYPE svg PUBLIC "-//W3C//DTD SVG 1.1//EN" "http://www.w3.org/Graphics/SVG/1.1/DTD/svg11.dtd">
<svg version="1.1" id="&#x56FE;&#x5C42;_1" xmlns="http://www.w3.org/2000/svg" xmlns:xlink="http://www.w3.org/1999/xlink" x="0px"
	 y="0px" width="101.006px" height="26.767px" viewBox="0 0 101.006 26.767" style="enable-background:new 0 0 101.006 26.767;"
	 xml:space="preserve">
<g>
	<path style="opacity:0.4;fill:#FFFFFF;" d="M7,7.958l6.383-0.81l6.383,0.81c0,0,0,2.664,0,6.503c0,5.154-6.383,6.781-6.383,6.781
		S7,19.615,7,14.6V7.958z"/>
	<path style="opacity:0.4;fill:#FFFFFF;" d="M13.383,7.147v14.095c0,0-6.383-1.627-6.383-6.781c0-3.84,0-6.503,0-6.503L13.383,7.147
		z"/>
	<g style="opacity:0.5;">
		<path style="fill:#FFFFFF;" d="M7.204,16.08c0.31,1.105,0.948,2.002,1.703,2.719L19.75,7.955l-3.923-0.498L7.204,16.08z"/>
		<path style="fill:#FFFFFF;" d="M19.779,10.739V9.382l-0.014,0.013c0,0.386,0,0.841,0,1.357L19.779,10.739z"/>
		<path style="fill:#FFFFFF;" d="M10.516,20.002l9.25-9.25c0-0.516,0-0.971,0-1.357L9.701,19.461
			C9.97,19.659,10.244,19.84,10.516,20.002z"/>
	</g>
	<path style="fill:#FFFFFF;" d="M3.92,3.919c-5.228,5.228-5.227,13.7,0,18.927c5.226,5.226,13.699,5.228,18.926-0.001
		c5.227-5.227,5.226-13.699,0-18.925C17.619-1.307,9.147-1.307,3.92,3.919z M20.863,20.863c-4.132,4.132-10.829,4.131-14.959,0
		C1.771,16.73,1.771,10.035,5.903,5.903c4.132-4.131,10.828-4.131,14.96,0C24.994,10.035,24.995,16.731,20.863,20.863z"/>
	<path style="fill:#FFFFFF;" d="M48.045,6.193H33.804v2.348h14.241c0.647,0,1.173-0.525,1.173-1.173
		C49.219,6.719,48.693,6.193,48.045,6.193z"/>
	<path style="fill:#FFFFFF;" d="M48.992,16.745h-2.721l0.676,2.798c0,0.139-0.101,0.205-0.301,0.205H36.452l2.911-5.425h9.378
		c0.668,0,1.21-0.542,1.21-1.212c0-0.667-0.542-1.21-1.21-1.21H33.073v2.422h3.398l-2.947,5.651v2.195h14.662
		c0.978,0,1.465-0.395,1.465-1.182v-1.24c-0.039-0.301-0.07-0.476-0.093-0.525L48.992,16.745z"/>
	<path style="fill:#FFFFFF;" d="M56.765,6.851V5.818h-2.12v1.033h-2.723v13.667c0,0.55,0.445,0.995,0.994,0.995
		c0.551,0,0.996-0.445,0.996-0.995V8.897h0.732v13.724h2.12V8.897h0.733v10.344c0,0.251-0.121,0.376-0.357,0.376h0.057v1.972h0.375
		c1.277,0,1.916-0.639,1.916-1.916V6.851H56.765z"/>
	<path style="fill:#FFFFFF;" d="M65.645,7.357V5.818h-3.041v1.539h-2.385V22.32h6.085c1.261,0,1.894-0.537,1.894-1.614V7.357H65.645
		z M65.645,19.617c0,0.338-0.199,0.508-0.6,0.508h-2.348v-4.188h2.947V19.617z M65.645,13.741h-2.947V9.555h2.947V13.741z"/>
	<g>
		<path style="fill:#FFFFFF;" d="M72.586,6.008h1.364v1.673h2.737v1.218h-2.737v2.931h3.386v1.256h-7.125v-1.256h2.375V6.008z"/>
		<path style="fill:#FFFFFF;" d="M85.045,6.023v6.145c0,0.313-0.1,0.573-0.301,0.779c-0.158,0.18-0.391,0.27-0.693,0.27h-0.795
			v-0.856h-0.293l-0.223-0.748l-0.271,0.748h-0.747l0.016,0.062h-1.025l-0.293-0.94l-0.316,0.94h-0.725v0.648h-1.188V6.023H85.045z
			 M81.786,7.457h0.723l0.324,1.064l0.379-1.064h0.655V7.164h-4.487v0.231h0.785l0.294,0.94l0.315-0.94h1.025L81.786,7.457z
			 M79.379,11.536l0.555-1.627l-0.555-1.751V11.536z M81.599,11.959l0.679-1.889L81.63,7.92l-0.679,1.989L81.599,11.959z
			 M83.867,8.49l-0.571,1.581l0.555,1.819c0.011-0.061,0.017-0.134,0.017-0.215V8.49z"/>
		<path style="fill:#FFFFFF;" d="M86.92,5.977h1.473L87.69,7.65c-0.015,0.041-0.033,0.08-0.053,0.116h0.855l-0.718,1.719v3.616
			H86.45v-2.93h-0.479v-1.18h0.371c0.148,0,0.256-0.095,0.322-0.285l0.193-0.509h-0.824v-1.18h0.338
			c0.123,0,0.211-0.083,0.264-0.247L86.92,5.977z M93.065,7.766v1.11h-0.51v3.169c0,0.735-0.451,1.103-1.356,1.103h-1.804v-1.149
			h1.479c0.186,0,0.278-0.074,0.278-0.223V8.875h-2.591v-1.11H93.065z M92.971,6.03v1.072h-4.256V6.03H92.971z"/>
		<path style="fill:#FFFFFF;" d="M94.067,7.789h2.514V5.992h1.287v1.796h2.977v4.164c0,0.75-0.43,1.125-1.287,1.125h-1.682v-1.256
			h1.195c0.221,0,0.332-0.095,0.332-0.285V9.045h-1.535v0.385h0.787l0.092,0.64c0.036,0.211,0.123,0.316,0.263,0.316h0.224v1.102
			H98.43c-0.364,0-0.594-0.21-0.686-0.632l-0.07-0.377l-1.642,2.414c-0.108,0.148-0.257,0.223-0.446,0.223h-1.443v-1.141h0.825
			c0.072-0.01,0.149-0.057,0.231-0.139l1.281-2.09c0.051-0.087,0.084-0.182,0.1-0.285V9.045h-2.514V7.789z M94.483,6.208h1.18
			l0.123,0.27c0.026,0.057,0.072,0.085,0.139,0.085h0.363v0.957h-0.972c-0.159,0-0.296-0.108-0.409-0.324L94.483,6.208z"/>
		<path style="fill:#FFFFFF;" d="M73.697,15.338v0.918h-0.64l0.046,0.123c0.041,0.119,0.12,0.178,0.239,0.178h0.107v0.401h0.277
			v-0.485c0.14,0,0.232-0.088,0.277-0.264l0.24-0.731c0.025-0.093,0.082-0.14,0.169-0.14h2.829v0.918h-0.594l0.055,0.123
			c0.051,0.119,0.146,0.178,0.285,0.178h0.131v0.771H76.34c-0.22,0-0.408-0.126-0.562-0.378l-0.348-0.694h-0.116
			c-0.072,0-0.131,0.057-0.176,0.17l-0.316,0.655c-0.072,0.165-0.197,0.265-0.379,0.301l0.016,0.093h2.854v1.287h-0.34v0.972
			c0,0.441-0.375,0.663-1.125,0.663h-4.087v0.199h5.366v1.111c0,0.482-0.375,0.725-1.125,0.725h-5.49v-3.67h-0.309v-1.287h2.907
			l-0.022-0.146h-0.371c-0.2,0-0.369-0.126-0.51-0.378l-0.322-0.694h-0.023c-0.077,0-0.139,0.057-0.185,0.17l-0.333,0.633
			c-0.092,0.205-0.285,0.308-0.577,0.308h-0.556v-0.925c0.148,0,0.252-0.086,0.309-0.256l0.254-0.708
			c0.025-0.093,0.09-0.14,0.193-0.14H73.697z M71.46,18.615h4.596v-0.293H71.46V18.615z M74.437,19.355h-2.676v0.301h3.662
			c0.196,0,0.294-0.057,0.294-0.17v-0.131H74.437z M73.049,21.622h2.529c0.195,0,0.291-0.062,0.291-0.185v-0.063h-4.108v0.247
			H73.049z"/>
		<path style="fill:#FFFFFF;" d="M80.575,15.393v1.072h-0.594v1.804h0.531v1.103h-0.531v1.857h0.531v1.118h-2.344v-1.118h0.594
			v-1.857h-0.594v-1.103h0.594v-1.804h-0.594v-1.072H80.575z M85.145,15.369v2.529h-0.014v0.971c0,0.463-0.258,0.694-0.771,0.694
			h-0.802v0.378h1.519v1.033h-1.519v0.385h1.643v1.033h-4.534v-1.033h1.742v-0.385h-1.588v-1.033h1.588v-0.378h-1.572v-1.665h-0.023
			v-2.529H85.145z M81.922,16.988h0.486v-0.625h-0.486V16.988z M82.409,18.568v-0.616h-0.478v0.616H82.409z M83.558,16.363v0.625
			h0.478v-0.625H83.558z M83.804,18.568c0.149,0,0.224-0.066,0.224-0.199v-0.417h-0.47v0.616H83.804z"/>
		<path style="fill:#FFFFFF;" d="M87.167,20.404h1.364l-0.517,1.495c-0.133,0.35-0.463,0.524-0.986,0.524h-1.025v-1.11h0.539
			c0.104,0,0.19-0.052,0.263-0.153L87.167,20.404z M91.677,15.338h1.333c-0.041,0.457-0.167,0.782-0.377,0.973
			c-0.195,0.169-0.476,0.254-0.842,0.254h-2.721l-0.979,0.686h1.512l0.84-0.471h1.997l-3.917,2.213h2.821
			c0.176,0,0.264-0.074,0.264-0.223v-0.301h1.402v0.764c0,0.627-0.354,0.94-1.063,0.94h-1.72v1.758c0,0.401-0.265,0.601-0.794,0.601
			h-1.188v-1.01h0.457c0.133,0,0.199-0.063,0.199-0.192v-1.156h-2.736v-0.972l1.688-0.957h-1.496V17.42
			c0-0.051,0.047-0.102,0.139-0.154l1.02-0.701h-1.357v-1.025h5.096C91.454,15.539,91.594,15.473,91.677,15.338z M90.512,20.412
			h1.365l0.354,0.794c0.047,0.093,0.117,0.138,0.209,0.138h0.656v1.111H91.9c-0.411,0-0.683-0.164-0.817-0.494L90.512,20.412z"/>
		<path style="fill:#FFFFFF;" d="M100.991,15.67v1.071H99.04l-0.578,1.303h1.134c0.18,0,0.271-0.14,0.271-0.423v-0.309h1.141v0.717
			c0,0.298-0.07,0.523-0.209,0.679c-0.119,0.175-0.297,0.28-0.539,0.315v2.244c0,0.139,0.08,0.208,0.238,0.208h0.494v1.033h-1.203
			c-0.473,0-0.709-0.206-0.709-0.616v-2.854h-1.912v-0.91c0-0.133,0.031-0.254,0.092-0.362l0.502-1.025h-0.655l-1.666,2.521h1.057
			v1.11h-2.567v-0.925c0-0.108,0.044-0.214,0.131-0.316l0.632-0.901h-0.909v-0.833c0-0.071,0.029-0.146,0.084-0.216L95,15.346h1.364
			l-1.218,1.889h0.247l0.479-0.686h1.109V15.67h1.428l-0.147-0.416h1.325l0.141,0.416H100.991z M95.6,20.767h1.304l-0.739,1.172
			c-0.154,0.257-0.422,0.386-0.803,0.386h-1.558v-1.08h1.057c0.165,0,0.282-0.038,0.355-0.115L95.6,20.767z M98.793,19.348
			l-0.262,2.467c-0.053,0.458-0.217,0.687-0.494,0.687h-1.18v-1.079h0.447c0.078,0,0.126-0.098,0.146-0.293l0.161-1.781H98.793z"/>
	</g>
	<path style="fill:#FFFFFF;" d="M40.446,24.313"/>
</g>
</svg>
