<svg xmlns="http://www.w3.org/2000/svg" width="82.16" height="93.972" viewBox="0 0 82.16 93.972"><path stroke="#fff" stroke-width=".25" stroke-miterlimit="10" fill="none" d="M79.826 69.269l-38.746 22.369-38.746-22.369v-44.741l38.746-22.369 38.746 22.369zM66.351 61.488l-25.271 14.589-25.27-14.589v-29.179l25.27-14.589 25.271 14.589zM53.104 53.841l-12.024 6.941-12.024-6.941v-13.885l12.024-6.941 12.024 6.941z"/><path opacity=".4" fill="#fff" d="M41.08 17.72l-25.27 14.589-6.027 34.59 31.297 9.178 25.271-14.589 13.475-36.96z"/><path opacity=".4" fill="#3769A4" d="M41.08 2.159l-15.964 35.739 12 13.333 3.964 31 25.271-20.743 5.431-32.257z"/><circle cx="41.08" cy="2.334" r="2.334" fill="#fff"/><circle cx="41.08" cy="91.638" r="2.334" fill="#fff"/><circle cx="79.826" cy="69.269" r="2.334" fill="#fff"/><circle cx="79.826" cy="24.528" r="2.334" fill="#fff"/><circle cx="2.334" cy="69.269" r="2.334" fill="#fff"/><circle cx="2.334" cy="24.528" r="2.334" fill="#fff"/></svg>