<?xml version="1.0" encoding="iso-8859-1"?>
<!-- Generator: Adobe Illustrator 16.0.0, SVG Export Plug-In . SVG Version: 6.00 Build 0)  -->
<!DOCTYPE svg PUBLIC "-//W3C//DTD SVG 1.1//EN" "http://www.w3.org/Graphics/SVG/1.1/DTD/svg11.dtd">
<svg version="1.1" id="&#x56FE;&#x5C42;_1" xmlns="http://www.w3.org/2000/svg" xmlns:xlink="http://www.w3.org/1999/xlink" x="0px"
	 y="0px" width="82.16px" height="93.972px" viewBox="0 0 82.16 93.972" style="enable-background:new 0 0 82.16 93.972;"
	 xml:space="preserve">
<g>
	<polygon style="fill:none;stroke:#FFFFFF;stroke-width:0.25;stroke-miterlimit:10;" points="79.826,69.269 41.08,91.638 
		2.334,69.269 2.334,24.528 41.08,2.159 79.826,24.528 	"/>
	<polygon style="fill:none;stroke:#FFFFFF;stroke-width:0.25;stroke-miterlimit:10;" points="66.351,61.488 41.08,76.077 
		15.81,61.488 15.81,32.309 41.08,17.72 66.351,32.309 	"/>
	<polygon style="fill:none;stroke:#FFFFFF;stroke-width:0.25;stroke-miterlimit:10;" points="53.104,53.841 41.08,60.782 
		29.056,53.841 29.056,39.956 41.08,33.015 53.104,39.956 	"/>
	<polygon style="opacity:0.4;fill:#FFFFFF;" points="41.08,17.72 15.81,32.309 9.783,66.899 41.08,76.077 66.351,61.488 
		79.826,24.528 	"/>
	<polygon style="opacity:0.4;fill:#3769A4;" points="41.08,2.159 25.116,37.898 37.116,51.231 41.08,82.231 66.351,61.488 
		71.782,29.231 	"/>
	<circle style="fill:#FFFFFF;" cx="41.08" cy="2.334" r="2.334"/>
	<circle style="fill:#FFFFFF;" cx="41.08" cy="91.638" r="2.334"/>
	<circle style="fill:#FFFFFF;" cx="79.826" cy="69.269" r="2.334"/>
	<circle style="fill:#FFFFFF;" cx="79.826" cy="24.528" r="2.334"/>
	<circle style="fill:#FFFFFF;" cx="2.334" cy="69.269" r="2.334"/>
	<circle style="fill:#FFFFFF;" cx="2.334" cy="24.528" r="2.334"/>
</g>
</svg>
